<mxfile host="app.diagrams.net" agent="Mozilla/5.0 (Windows NT 10.0; Win64; x64) AppleWebKit/537.36 (KHTML, like Gecko) Chrome/137.0.0.0 Safari/537.36 Edg/137.0.0.0" version="27.1.4">
  <diagram name="Страница — 1" id="mOt0P1j8qdvr94AqTxT4">
    <mxGraphModel dx="4490" dy="1588" grid="1" gridSize="10" guides="1" tooltips="1" connect="1" arrows="1" fold="1" page="1" pageScale="1" pageWidth="827" pageHeight="1169" math="0" shadow="0">
      <root>
        <mxCell id="0" />
        <mxCell id="1" parent="0" />
        <mxCell id="d8k96oOKlWlVaObeh7ed-11" style="edgeStyle=orthogonalEdgeStyle;rounded=0;orthogonalLoop=1;jettySize=auto;html=1;entryX=1;entryY=0.5;entryDx=0;entryDy=0;" parent="1" source="5Bsa57qsfdlH7Fz6no1h-1" target="5Bsa57qsfdlH7Fz6no1h-13" edge="1">
          <mxGeometry relative="1" as="geometry" />
        </mxCell>
        <mxCell id="d8k96oOKlWlVaObeh7ed-12" style="edgeStyle=orthogonalEdgeStyle;rounded=0;orthogonalLoop=1;jettySize=auto;html=1;entryX=0;entryY=0.5;entryDx=0;entryDy=0;" parent="1" source="5Bsa57qsfdlH7Fz6no1h-1" target="5Bsa57qsfdlH7Fz6no1h-14" edge="1">
          <mxGeometry relative="1" as="geometry" />
        </mxCell>
        <mxCell id="d8k96oOKlWlVaObeh7ed-13" style="edgeStyle=orthogonalEdgeStyle;rounded=0;orthogonalLoop=1;jettySize=auto;html=1;entryX=1;entryY=0.5;entryDx=0;entryDy=0;" parent="1" source="5Bsa57qsfdlH7Fz6no1h-1" target="d8k96oOKlWlVaObeh7ed-3" edge="1">
          <mxGeometry relative="1" as="geometry" />
        </mxCell>
        <mxCell id="NffoHvDZTpGliqTwmPOM-1" style="edgeStyle=orthogonalEdgeStyle;rounded=0;orthogonalLoop=1;jettySize=auto;html=1;entryX=0;entryY=0.5;entryDx=0;entryDy=0;" edge="1" parent="1" source="5Bsa57qsfdlH7Fz6no1h-1" target="5Bsa57qsfdlH7Fz6no1h-16">
          <mxGeometry relative="1" as="geometry" />
        </mxCell>
        <mxCell id="NffoHvDZTpGliqTwmPOM-5" style="edgeStyle=orthogonalEdgeStyle;rounded=0;orthogonalLoop=1;jettySize=auto;html=1;entryX=0.5;entryY=0;entryDx=0;entryDy=0;" edge="1" parent="1" source="5Bsa57qsfdlH7Fz6no1h-1" target="d8k96oOKlWlVaObeh7ed-2">
          <mxGeometry relative="1" as="geometry" />
        </mxCell>
        <mxCell id="5Bsa57qsfdlH7Fz6no1h-1" value="&lt;font&gt;Бизнес-направления&lt;/font&gt;" style="rounded=1;whiteSpace=wrap;html=1;fontSize=20;fontFamily=Times New Roman;" parent="1" vertex="1">
          <mxGeometry x="-270" y="170" width="284" height="150" as="geometry" />
        </mxCell>
        <mxCell id="d8k96oOKlWlVaObeh7ed-29" style="edgeStyle=orthogonalEdgeStyle;rounded=0;orthogonalLoop=1;jettySize=auto;html=1;entryX=1;entryY=0.5;entryDx=0;entryDy=0;" parent="1" source="5Bsa57qsfdlH7Fz6no1h-13" target="5Bsa57qsfdlH7Fz6no1h-46" edge="1">
          <mxGeometry relative="1" as="geometry" />
        </mxCell>
        <mxCell id="5Bsa57qsfdlH7Fz6no1h-13" value="&lt;div class=&quot;code-block&quot; data-entity-type=&quot;MessageEntityPre&quot; data-language=&quot;&quot; style=&quot;box-sizing: border-box; font-variant-numeric: normal; font-variant-east-asian: normal; font-variant-alternates: normal; font-variant-position: normal; font-variant-emoji: normal; font-kerning: auto; font-optical-sizing: auto; font-feature-settings: normal; font-variation-settings: normal; font-stretch: normal; line-height: 1.25; font-size-adjust: 0.5; margin-top: 0px; margin-bottom: 0px; overflow: hidden; --color-scrollbar: var(--color-scrollbar-code); --color-type: light-dark(#0053d4, #6db4ff); --color-keyword: light-dark(#388e22, #56a043); --color-class: light-dark(#3e6c20, #83ab69); --color-string: light-dark(#9a1111, #ffadad); --color-template: light-dark(#9a5334, #cd9076); --color-selector: light-dark(#9a5334, #cd9076); --color-function: light-dark(#a753b7, #c37bd1); --color-comment: light-dark(#616161, #9a9a9a); --color-section: light-dark(#9a1111, #ffadad); --color-variable: light-dark(#bd63c5, #b86bbf); --color-attribute: light-dark(#276b8f, #6ba6c5); --color-link: light-dark(#276b8f, #6ba6c5); --color-tag: light-dark(#000000, #ededed);&quot;&gt;&lt;div class=&quot;code-block&quot; data-entity-type=&quot;MessageEntityPre&quot; data-language=&quot;&quot; style=&quot;box-sizing: border-box; font-variant-numeric: normal; font-variant-east-asian: normal; font-variant-alternates: normal; font-variant-position: normal; font-variant-emoji: normal; font-kerning: auto; font-optical-sizing: auto; font-feature-settings: normal; font-variation-settings: normal; font-stretch: normal; line-height: 1.25; font-size-adjust: 0.5; margin-top: 0px; margin-bottom: 0px; overflow: hidden; --color-scrollbar: var(--color-scrollbar-code); --color-type: light-dark(#0053d4, #6db4ff); --color-keyword: light-dark(#388e22, #56a043); --color-class: light-dark(#3e6c20, #83ab69); --color-string: light-dark(#9a1111, #ffadad); --color-template: light-dark(#9a5334, #cd9076); --color-selector: light-dark(#9a5334, #cd9076); --color-function: light-dark(#a753b7, #c37bd1); --color-comment: light-dark(#616161, #9a9a9a); --color-section: light-dark(#9a1111, #ffadad); --color-variable: light-dark(#bd63c5, #b86bbf); --color-attribute: light-dark(#276b8f, #6ba6c5); --color-link: light-dark(#276b8f, #6ba6c5); --color-tag: light-dark(#000000, #ededed);&quot;&gt;Департамент электронного обучения и сопровождения&lt;/div&gt;&lt;/div&gt;" style="rounded=1;whiteSpace=wrap;html=1;align=center;fillColor=#FFFFFF;strokeColor=#000000;fontSize=20;fontFamily=Times New Roman;" parent="1" vertex="1">
          <mxGeometry x="-554" y="550" width="284" height="150" as="geometry" />
        </mxCell>
        <mxCell id="d8k96oOKlWlVaObeh7ed-28" style="edgeStyle=orthogonalEdgeStyle;rounded=0;orthogonalLoop=1;jettySize=auto;html=1;" parent="1" source="5Bsa57qsfdlH7Fz6no1h-14" target="5Bsa57qsfdlH7Fz6no1h-26" edge="1">
          <mxGeometry relative="1" as="geometry" />
        </mxCell>
        <mxCell id="5Bsa57qsfdlH7Fz6no1h-14" value="&lt;div class=&quot;code-block&quot; data-entity-type=&quot;MessageEntityPre&quot; data-language=&quot;&quot; style=&quot;box-sizing: border-box; font-variant-numeric: normal; font-variant-east-asian: normal; font-variant-alternates: normal; font-variant-position: normal; font-variant-emoji: normal; font-kerning: auto; font-optical-sizing: auto; font-feature-settings: normal; font-variation-settings: normal; font-stretch: normal; line-height: 1.25; font-size-adjust: 0.5; margin-top: 0px; margin-bottom: 0px; overflow: hidden; --color-scrollbar: var(--color-scrollbar-code); --color-type: light-dark(#0053d4, #6db4ff); --color-keyword: light-dark(#388e22, #56a043); --color-class: light-dark(#3e6c20, #83ab69); --color-string: light-dark(#9a1111, #ffadad); --color-template: light-dark(#9a5334, #cd9076); --color-selector: light-dark(#9a5334, #cd9076); --color-function: light-dark(#a753b7, #c37bd1); --color-comment: light-dark(#616161, #9a9a9a); --color-section: light-dark(#9a1111, #ffadad); --color-variable: light-dark(#bd63c5, #b86bbf); --color-attribute: light-dark(#276b8f, #6ba6c5); --color-link: light-dark(#276b8f, #6ba6c5); --color-tag: light-dark(#000000, #ededed);&quot;&gt;&lt;div class=&quot;code-block&quot; data-entity-type=&quot;MessageEntityPre&quot; data-language=&quot;&quot; style=&quot;box-sizing: border-box; font-variant-numeric: normal; font-variant-east-asian: normal; font-variant-alternates: normal; font-variant-position: normal; font-variant-emoji: normal; font-kerning: auto; font-optical-sizing: auto; font-feature-settings: normal; font-variation-settings: normal; font-stretch: normal; line-height: 1.25; font-size-adjust: 0.5; margin-top: 0px; margin-bottom: 0px; overflow: hidden; --color-scrollbar: var(--color-scrollbar-code); --color-type: light-dark(#0053d4, #6db4ff); --color-keyword: light-dark(#388e22, #56a043); --color-class: light-dark(#3e6c20, #83ab69); --color-string: light-dark(#9a1111, #ffadad); --color-template: light-dark(#9a5334, #cd9076); --color-selector: light-dark(#9a5334, #cd9076); --color-function: light-dark(#a753b7, #c37bd1); --color-comment: light-dark(#616161, #9a9a9a); --color-section: light-dark(#9a1111, #ffadad); --color-variable: light-dark(#bd63c5, #b86bbf); --color-attribute: light-dark(#276b8f, #6ba6c5); --color-link: light-dark(#276b8f, #6ba6c5); --color-tag: light-dark(#000000, #ededed);&quot;&gt;Студенческий офис&lt;/div&gt;&lt;/div&gt;" style="rounded=1;whiteSpace=wrap;html=1;align=center;fillColor=#FFFFFF;strokeColor=#000000;fontSize=20;fontFamily=Times New Roman;" parent="1" vertex="1">
          <mxGeometry x="14" y="550" width="284" height="150" as="geometry" />
        </mxCell>
        <mxCell id="NffoHvDZTpGliqTwmPOM-4" style="edgeStyle=orthogonalEdgeStyle;rounded=0;orthogonalLoop=1;jettySize=auto;html=1;entryX=0;entryY=0.5;entryDx=0;entryDy=0;" edge="1" parent="1" source="5Bsa57qsfdlH7Fz6no1h-16" target="5Bsa57qsfdlH7Fz6no1h-37">
          <mxGeometry relative="1" as="geometry">
            <Array as="points">
              <mxPoint x="120" y="1365" />
            </Array>
          </mxGeometry>
        </mxCell>
        <mxCell id="5Bsa57qsfdlH7Fz6no1h-16" value="&lt;div class=&quot;code-block&quot; data-entity-type=&quot;MessageEntityPre&quot; data-language=&quot;&quot; style=&quot;box-sizing: border-box; font-variant-numeric: normal; font-variant-east-asian: normal; font-variant-alternates: normal; font-variant-position: normal; font-variant-emoji: normal; font-kerning: auto; font-optical-sizing: auto; font-feature-settings: normal; font-variation-settings: normal; font-stretch: normal; line-height: 1.25; font-size-adjust: 0.5; margin-top: 0px; margin-bottom: 0px; overflow: hidden; --color-scrollbar: var(--color-scrollbar-code); --color-type: light-dark(#0053d4, #6db4ff); --color-keyword: light-dark(#388e22, #56a043); --color-class: light-dark(#3e6c20, #83ab69); --color-string: light-dark(#9a1111, #ffadad); --color-template: light-dark(#9a5334, #cd9076); --color-selector: light-dark(#9a5334, #cd9076); --color-function: light-dark(#a753b7, #c37bd1); --color-comment: light-dark(#616161, #9a9a9a); --color-section: light-dark(#9a1111, #ffadad); --color-variable: light-dark(#bd63c5, #b86bbf); --color-attribute: light-dark(#276b8f, #6ba6c5); --color-link: light-dark(#276b8f, #6ba6c5); --color-tag: light-dark(#000000, #ededed);&quot;&gt;&lt;font&gt;&lt;span style=&quot;text-wrap-mode: wrap;&quot;&gt;Отдел информационного и документационного сопровождения обучающихся&lt;/span&gt;&lt;/font&gt;&lt;/div&gt;" style="rounded=1;whiteSpace=wrap;html=1;align=center;fillColor=#FFFFFF;strokeColor=#000000;fontSize=20;fontFamily=Times New Roman;" parent="1" vertex="1">
          <mxGeometry x="-30" y="1110" width="284" height="150" as="geometry" />
        </mxCell>
        <mxCell id="5Bsa57qsfdlH7Fz6no1h-26" value="&lt;div class=&quot;code-block&quot; data-entity-type=&quot;MessageEntityPre&quot; data-language=&quot;&quot; style=&quot;box-sizing: border-box; font-variant-numeric: normal; font-variant-east-asian: normal; font-variant-alternates: normal; font-variant-position: normal; font-variant-emoji: normal; font-kerning: auto; font-optical-sizing: auto; font-feature-settings: normal; font-variation-settings: normal; font-stretch: normal; line-height: 1.25; font-size-adjust: 0.5; margin-top: 0px; margin-bottom: 0px; overflow: hidden; --color-scrollbar: var(--color-scrollbar-code); --color-type: light-dark(#0053d4, #6db4ff); --color-keyword: light-dark(#388e22, #56a043); --color-class: light-dark(#3e6c20, #83ab69); --color-string: light-dark(#9a1111, #ffadad); --color-template: light-dark(#9a5334, #cd9076); --color-selector: light-dark(#9a5334, #cd9076); --color-function: light-dark(#a753b7, #c37bd1); --color-comment: light-dark(#616161, #9a9a9a); --color-section: light-dark(#9a1111, #ffadad); --color-variable: light-dark(#bd63c5, #b86bbf); --color-attribute: light-dark(#276b8f, #6ba6c5); --color-link: light-dark(#276b8f, #6ba6c5); --color-tag: light-dark(#000000, #ededed);&quot;&gt;&lt;div class=&quot;code-block&quot; data-entity-type=&quot;MessageEntityPre&quot; data-language=&quot;&quot; style=&quot;box-sizing: border-box; font-variant-numeric: normal; font-variant-east-asian: normal; font-variant-alternates: normal; font-variant-position: normal; font-variant-emoji: normal; font-kerning: auto; font-optical-sizing: auto; font-feature-settings: normal; font-variation-settings: normal; font-stretch: normal; line-height: 1.25; font-size-adjust: 0.5; margin-top: 0px; margin-bottom: 0px; overflow: hidden; --color-scrollbar: var(--color-scrollbar-code); --color-type: light-dark(#0053d4, #6db4ff); --color-keyword: light-dark(#388e22, #56a043); --color-class: light-dark(#3e6c20, #83ab69); --color-string: light-dark(#9a1111, #ffadad); --color-template: light-dark(#9a5334, #cd9076); --color-selector: light-dark(#9a5334, #cd9076); --color-function: light-dark(#a753b7, #c37bd1); --color-comment: light-dark(#616161, #9a9a9a); --color-section: light-dark(#9a1111, #ffadad); --color-variable: light-dark(#bd63c5, #b86bbf); --color-attribute: light-dark(#276b8f, #6ba6c5); --color-link: light-dark(#276b8f, #6ba6c5); --color-tag: light-dark(#000000, #ededed);&quot;&gt;Обработка заявлений на продление сроков ликвидации задолженности&lt;/div&gt;&lt;/div&gt;" style="rounded=1;whiteSpace=wrap;html=1;align=center;fontSize=20;fontFamily=Times New Roman;" parent="1" vertex="1">
          <mxGeometry x="380" y="550" width="284" height="150" as="geometry" />
        </mxCell>
        <mxCell id="5Bsa57qsfdlH7Fz6no1h-35" value="&lt;div class=&quot;code-block&quot; data-entity-type=&quot;MessageEntityPre&quot; data-language=&quot;&quot; style=&quot;box-sizing: border-box; font-variant-numeric: normal; font-variant-east-asian: normal; font-variant-alternates: normal; font-variant-position: normal; font-variant-emoji: normal; font-kerning: auto; font-optical-sizing: auto; font-feature-settings: normal; font-variation-settings: normal; font-stretch: normal; line-height: 1.25; font-size-adjust: 0.5; margin-top: 0px; margin-bottom: 0px; overflow: hidden; --color-scrollbar: var(--color-scrollbar-code); text-wrap-mode: wrap; --color-type: light-dark(#0053d4, #6db4ff); --color-keyword: light-dark(#388e22, #56a043); --color-class: light-dark(#3e6c20, #83ab69); --color-string: light-dark(#9a1111, #ffadad); --color-template: light-dark(#9a5334, #cd9076); --color-selector: light-dark(#9a5334, #cd9076); --color-function: light-dark(#a753b7, #c37bd1); --color-comment: light-dark(#616161, #9a9a9a); --color-section: light-dark(#9a1111, #ffadad); --color-variable: light-dark(#bd63c5, #b86bbf); --color-attribute: light-dark(#276b8f, #6ba6c5); --color-link: light-dark(#276b8f, #6ba6c5); --color-tag: light-dark(#000000, #ededed);&quot;&gt;&lt;div class=&quot;code-block&quot; data-entity-type=&quot;MessageEntityPre&quot; data-language=&quot;&quot; style=&quot;box-sizing: border-box; font-variant-numeric: normal; font-variant-east-asian: normal; font-variant-alternates: normal; font-variant-position: normal; font-variant-emoji: normal; font-kerning: auto; font-optical-sizing: auto; font-feature-settings: normal; font-variation-settings: normal; font-stretch: normal; line-height: 1.25; font-size-adjust: 0.5; margin-top: 0px; margin-bottom: 0px; overflow: hidden; --color-scrollbar: var(--color-scrollbar-code); text-wrap-mode: wrap; --color-type: light-dark(#0053d4, #6db4ff); --color-keyword: light-dark(#388e22, #56a043); --color-class: light-dark(#3e6c20, #83ab69); --color-string: light-dark(#9a1111, #ffadad); --color-template: light-dark(#9a5334, #cd9076); --color-selector: light-dark(#9a5334, #cd9076); --color-function: light-dark(#a753b7, #c37bd1); --color-comment: light-dark(#616161, #9a9a9a); --color-section: light-dark(#9a1111, #ffadad); --color-variable: light-dark(#bd63c5, #b86bbf); --color-attribute: light-dark(#276b8f, #6ba6c5); --color-link: light-dark(#276b8f, #6ba6c5); --color-tag: light-dark(#000000, #ededed);&quot;&gt;&lt;span style=&quot;text-align: start; background-color: rgb(255, 255, 255);&quot;&gt;Мониторинг академических задолженностей&lt;/span&gt;&lt;/div&gt;&lt;/div&gt;" style="rounded=1;whiteSpace=wrap;html=1;align=center;fontSize=20;fontFamily=Times New Roman;" parent="1" vertex="1">
          <mxGeometry x="380" y="970" width="284" height="150" as="geometry" />
        </mxCell>
        <mxCell id="5Bsa57qsfdlH7Fz6no1h-37" value="&lt;div class=&quot;code-block&quot; data-entity-type=&quot;MessageEntityPre&quot; data-language=&quot;&quot; style=&quot;box-sizing: border-box; font-variant-numeric: normal; font-variant-east-asian: normal; font-variant-alternates: normal; font-variant-position: normal; font-variant-emoji: normal; font-kerning: auto; font-optical-sizing: auto; font-feature-settings: normal; font-variation-settings: normal; font-stretch: normal; line-height: 1.25; font-size-adjust: 0.5; margin-top: 0px; margin-bottom: 0px; overflow: hidden; --color-scrollbar: var(--color-scrollbar-code); --color-type: light-dark(#0053d4, #6db4ff); --color-keyword: light-dark(#388e22, #56a043); --color-class: light-dark(#3e6c20, #83ab69); --color-string: light-dark(#9a1111, #ffadad); --color-template: light-dark(#9a5334, #cd9076); --color-selector: light-dark(#9a5334, #cd9076); --color-function: light-dark(#a753b7, #c37bd1); --color-comment: light-dark(#616161, #9a9a9a); --color-section: light-dark(#9a1111, #ffadad); --color-variable: light-dark(#bd63c5, #b86bbf); --color-attribute: light-dark(#276b8f, #6ba6c5); --color-link: light-dark(#276b8f, #6ba6c5); --color-tag: light-dark(#000000, #ededed);&quot;&gt;&lt;div class=&quot;code-block&quot; data-entity-type=&quot;MessageEntityPre&quot; data-language=&quot;&quot; style=&quot;box-sizing: border-box; font-variant-numeric: normal; font-variant-east-asian: normal; font-variant-alternates: normal; font-variant-position: normal; font-variant-emoji: normal; font-kerning: auto; font-optical-sizing: auto; font-feature-settings: normal; font-variation-settings: normal; font-stretch: normal; line-height: 1.25; font-size-adjust: 0.5; margin-top: 0px; margin-bottom: 0px; overflow: hidden; --color-scrollbar: var(--color-scrollbar-code); --color-type: light-dark(#0053d4, #6db4ff); --color-keyword: light-dark(#388e22, #56a043); --color-class: light-dark(#3e6c20, #83ab69); --color-string: light-dark(#9a1111, #ffadad); --color-template: light-dark(#9a5334, #cd9076); --color-selector: light-dark(#9a5334, #cd9076); --color-function: light-dark(#a753b7, #c37bd1); --color-comment: light-dark(#616161, #9a9a9a); --color-section: light-dark(#9a1111, #ffadad); --color-variable: light-dark(#bd63c5, #b86bbf); --color-attribute: light-dark(#276b8f, #6ba6c5); --color-link: light-dark(#276b8f, #6ba6c5); --color-tag: light-dark(#000000, #ededed);&quot;&gt;&lt;div class=&quot;code-block&quot; data-entity-type=&quot;MessageEntityPre&quot; data-language=&quot;&quot; style=&quot;box-sizing: border-box; font-variant-numeric: normal; font-variant-east-asian: normal; font-variant-alternates: normal; font-variant-position: normal; font-variant-emoji: normal; font-kerning: auto; font-optical-sizing: auto; font-feature-settings: normal; font-variation-settings: normal; font-stretch: normal; line-height: 1.25; font-size-adjust: 0.5; margin-top: 0px; margin-bottom: 0px; overflow: hidden; --color-scrollbar: var(--color-scrollbar-code); --color-type: light-dark(#0053d4, #6db4ff); --color-keyword: light-dark(#388e22, #56a043); --color-class: light-dark(#3e6c20, #83ab69); --color-string: light-dark(#9a1111, #ffadad); --color-template: light-dark(#9a5334, #cd9076); --color-selector: light-dark(#9a5334, #cd9076); --color-function: light-dark(#a753b7, #c37bd1); --color-comment: light-dark(#616161, #9a9a9a); --color-section: light-dark(#9a1111, #ffadad); --color-variable: light-dark(#bd63c5, #b86bbf); --color-attribute: light-dark(#276b8f, #6ba6c5); --color-link: light-dark(#276b8f, #6ba6c5); --color-tag: light-dark(#000000, #ededed);&quot;&gt;&lt;font&gt;&lt;span style=&quot;text-wrap-mode: wrap;&quot;&gt;Контроль академической успеваемости&lt;/span&gt;&lt;/font&gt;&lt;/div&gt;&lt;/div&gt;&lt;/div&gt;" style="rounded=1;whiteSpace=wrap;html=1;align=center;fillColor=light-dark(#E08787,var(--ge-dark-color, #121212));fontSize=20;fontFamily=Times New Roman;" parent="1" vertex="1">
          <mxGeometry x="380" y="1290" width="284" height="150" as="geometry" />
        </mxCell>
        <mxCell id="5Bsa57qsfdlH7Fz6no1h-46" value="&lt;div class=&quot;code-block&quot; data-entity-type=&quot;MessageEntityPre&quot; data-language=&quot;&quot; style=&quot;box-sizing: border-box; font-variant-numeric: normal; font-variant-east-asian: normal; font-variant-alternates: normal; font-variant-position: normal; font-variant-emoji: normal; font-kerning: auto; font-optical-sizing: auto; font-feature-settings: normal; font-variation-settings: normal; font-stretch: normal; line-height: 1.25; font-size-adjust: 0.5; margin-top: 0px; margin-bottom: 0px; overflow: hidden; --color-scrollbar: var(--color-scrollbar-code); text-wrap-mode: wrap; --color-type: light-dark(#0053d4, #6db4ff); --color-keyword: light-dark(#388e22, #56a043); --color-class: light-dark(#3e6c20, #83ab69); --color-string: light-dark(#9a1111, #ffadad); --color-template: light-dark(#9a5334, #cd9076); --color-selector: light-dark(#9a5334, #cd9076); --color-function: light-dark(#a753b7, #c37bd1); --color-comment: light-dark(#616161, #9a9a9a); --color-section: light-dark(#9a1111, #ffadad); --color-variable: light-dark(#bd63c5, #b86bbf); --color-attribute: light-dark(#276b8f, #6ba6c5); --color-link: light-dark(#276b8f, #6ba6c5); --color-tag: light-dark(#000000, #ededed);&quot;&gt;&lt;div class=&quot;code-block&quot; data-entity-type=&quot;MessageEntityPre&quot; data-language=&quot;&quot; style=&quot;box-sizing: border-box; font-variant-numeric: normal; font-variant-east-asian: normal; font-variant-alternates: normal; font-variant-position: normal; font-variant-emoji: normal; font-kerning: auto; font-optical-sizing: auto; font-feature-settings: normal; font-variation-settings: normal; font-stretch: normal; line-height: 1.25; font-size-adjust: 0.5; margin-top: 0px; margin-bottom: 0px; overflow: hidden; --color-scrollbar: var(--color-scrollbar-code); text-wrap-mode: wrap; --color-type: light-dark(#0053d4, #6db4ff); --color-keyword: light-dark(#388e22, #56a043); --color-class: light-dark(#3e6c20, #83ab69); --color-string: light-dark(#9a1111, #ffadad); --color-template: light-dark(#9a5334, #cd9076); --color-selector: light-dark(#9a5334, #cd9076); --color-function: light-dark(#a753b7, #c37bd1); --color-comment: light-dark(#616161, #9a9a9a); --color-section: light-dark(#9a1111, #ffadad); --color-variable: light-dark(#bd63c5, #b86bbf); --color-attribute: light-dark(#276b8f, #6ba6c5); --color-link: light-dark(#276b8f, #6ba6c5); --color-tag: light-dark(#000000, #ededed);&quot;&gt;&lt;div class=&quot;code-block&quot; data-entity-type=&quot;MessageEntityPre&quot; data-language=&quot;&quot; style=&quot;box-sizing: border-box; font-variant-numeric: normal; font-variant-east-asian: normal; font-variant-alternates: normal; font-variant-position: normal; font-variant-emoji: normal; font-kerning: auto; font-optical-sizing: auto; font-feature-settings: normal; font-variation-settings: normal; font-stretch: normal; line-height: 1.25; font-size-adjust: 0.5; margin-top: 0px; margin-bottom: 0px; overflow: hidden; --color-scrollbar: var(--color-scrollbar-code); text-wrap-mode: wrap; --color-type: light-dark(#0053d4, #6db4ff); --color-keyword: light-dark(#388e22, #56a043); --color-class: light-dark(#3e6c20, #83ab69); --color-string: light-dark(#9a1111, #ffadad); --color-template: light-dark(#9a5334, #cd9076); --color-selector: light-dark(#9a5334, #cd9076); --color-function: light-dark(#a753b7, #c37bd1); --color-comment: light-dark(#616161, #9a9a9a); --color-section: light-dark(#9a1111, #ffadad); --color-variable: light-dark(#bd63c5, #b86bbf); --color-attribute: light-dark(#276b8f, #6ba6c5); --color-link: light-dark(#276b8f, #6ba6c5); --color-tag: light-dark(#000000, #ededed);&quot;&gt;&lt;div class=&quot;code-block&quot; data-entity-type=&quot;MessageEntityPre&quot; data-language=&quot;&quot; style=&quot;box-sizing: border-box; font-variant-numeric: normal; font-variant-east-asian: normal; font-variant-alternates: normal; font-variant-position: normal; font-variant-emoji: normal; font-kerning: auto; font-optical-sizing: auto; font-feature-settings: normal; font-variation-settings: normal; font-stretch: normal; line-height: 1.25; font-size-adjust: 0.5; margin-top: 0px; margin-bottom: 0px; overflow: hidden; --color-scrollbar: var(--color-scrollbar-code); text-wrap-mode: wrap; --color-type: light-dark(#0053d4, #6db4ff); --color-keyword: light-dark(#388e22, #56a043); --color-class: light-dark(#3e6c20, #83ab69); --color-string: light-dark(#9a1111, #ffadad); --color-template: light-dark(#9a5334, #cd9076); --color-selector: light-dark(#9a5334, #cd9076); --color-function: light-dark(#a753b7, #c37bd1); --color-comment: light-dark(#616161, #9a9a9a); --color-section: light-dark(#9a1111, #ffadad); --color-variable: light-dark(#bd63c5, #b86bbf); --color-attribute: light-dark(#276b8f, #6ba6c5); --color-link: light-dark(#276b8f, #6ba6c5); --color-tag: light-dark(#000000, #ededed);&quot;&gt;&lt;div class=&quot;code-block&quot; data-entity-type=&quot;MessageEntityPre&quot; data-language=&quot;&quot; style=&quot;box-sizing: border-box; font-variant-numeric: normal; font-variant-east-asian: normal; font-variant-alternates: normal; font-variant-position: normal; font-variant-emoji: normal; font-kerning: auto; font-optical-sizing: auto; font-feature-settings: normal; font-variation-settings: normal; font-stretch: normal; line-height: 1.25; font-size-adjust: 0.5; margin-top: 0px; margin-bottom: 0px; overflow: hidden; --color-scrollbar: var(--color-scrollbar-code); text-wrap-mode: wrap; --color-type: light-dark(#0053d4, #6db4ff); --color-keyword: light-dark(#388e22, #56a043); --color-class: light-dark(#3e6c20, #83ab69); --color-string: light-dark(#9a1111, #ffadad); --color-template: light-dark(#9a5334, #cd9076); --color-selector: light-dark(#9a5334, #cd9076); --color-function: light-dark(#a753b7, #c37bd1); --color-comment: light-dark(#616161, #9a9a9a); --color-section: light-dark(#9a1111, #ffadad); --color-variable: light-dark(#bd63c5, #b86bbf); --color-attribute: light-dark(#276b8f, #6ba6c5); --color-link: light-dark(#276b8f, #6ba6c5); --color-tag: light-dark(#000000, #ededed);&quot;&gt;&lt;span style=&quot;text-align: start; background-color: rgb(255, 255, 255);&quot;&gt;&lt;font&gt;Контроль соблюдения академических стандартов&lt;/font&gt;&lt;/span&gt;&lt;/div&gt;&lt;/div&gt;&lt;/div&gt;&lt;/div&gt;&lt;/div&gt;" style="rounded=1;whiteSpace=wrap;html=1;align=center;fontSize=20;fontFamily=Times New Roman;" parent="1" vertex="1">
          <mxGeometry x="-930" y="550" width="284" height="150" as="geometry" />
        </mxCell>
        <mxCell id="NffoHvDZTpGliqTwmPOM-6" style="edgeStyle=orthogonalEdgeStyle;rounded=0;orthogonalLoop=1;jettySize=auto;html=1;entryX=0.5;entryY=0;entryDx=0;entryDy=0;" edge="1" parent="1" source="d8k96oOKlWlVaObeh7ed-2" target="d8k96oOKlWlVaObeh7ed-18">
          <mxGeometry relative="1" as="geometry" />
        </mxCell>
        <mxCell id="d8k96oOKlWlVaObeh7ed-2" value="&lt;div class=&quot;code-block&quot; data-entity-type=&quot;MessageEntityPre&quot; data-language=&quot;&quot; style=&quot;box-sizing: border-box; font-variant-numeric: normal; font-variant-east-asian: normal; font-variant-alternates: normal; font-variant-position: normal; font-variant-emoji: normal; font-kerning: auto; font-optical-sizing: auto; font-feature-settings: normal; font-variation-settings: normal; font-stretch: normal; line-height: 1.25; font-size-adjust: 0.5; margin-top: 0px; margin-bottom: 0px; overflow: hidden; --color-scrollbar: var(--color-scrollbar-code); --color-type: light-dark(#0053d4, #6db4ff); --color-keyword: light-dark(#388e22, #56a043); --color-class: light-dark(#3e6c20, #83ab69); --color-string: light-dark(#9a1111, #ffadad); --color-template: light-dark(#9a5334, #cd9076); --color-selector: light-dark(#9a5334, #cd9076); --color-function: light-dark(#a753b7, #c37bd1); --color-comment: light-dark(#616161, #9a9a9a); --color-section: light-dark(#9a1111, #ffadad); --color-variable: light-dark(#bd63c5, #b86bbf); --color-attribute: light-dark(#276b8f, #6ba6c5); --color-link: light-dark(#276b8f, #6ba6c5); --color-tag: light-dark(#000000, #ededed);&quot;&gt;Группа сопровождения интерактивных занятий&lt;/div&gt;" style="rounded=1;whiteSpace=wrap;html=1;align=center;fillColor=#FFFFFF;strokeColor=#000000;fontSize=20;fontFamily=Times New Roman;" parent="1" vertex="1">
          <mxGeometry x="-270" y="1320" width="284" height="150" as="geometry" />
        </mxCell>
        <mxCell id="d8k96oOKlWlVaObeh7ed-23" style="edgeStyle=orthogonalEdgeStyle;rounded=0;orthogonalLoop=1;jettySize=auto;html=1;entryX=1;entryY=0.5;entryDx=0;entryDy=0;" parent="1" source="d8k96oOKlWlVaObeh7ed-3" target="d8k96oOKlWlVaObeh7ed-22" edge="1">
          <mxGeometry relative="1" as="geometry">
            <Array as="points">
              <mxPoint x="-400" y="1045" />
            </Array>
          </mxGeometry>
        </mxCell>
        <mxCell id="d8k96oOKlWlVaObeh7ed-25" style="edgeStyle=orthogonalEdgeStyle;rounded=0;orthogonalLoop=1;jettySize=auto;html=1;entryX=1;entryY=0.5;entryDx=0;entryDy=0;" parent="1" source="d8k96oOKlWlVaObeh7ed-3" target="d8k96oOKlWlVaObeh7ed-24" edge="1">
          <mxGeometry relative="1" as="geometry">
            <Array as="points">
              <mxPoint x="-400" y="1365" />
            </Array>
          </mxGeometry>
        </mxCell>
        <mxCell id="d8k96oOKlWlVaObeh7ed-3" value="&lt;div class=&quot;code-block&quot; data-entity-type=&quot;MessageEntityPre&quot; data-language=&quot;&quot; style=&quot;box-sizing: border-box; font-variant-numeric: normal; font-variant-east-asian: normal; font-variant-alternates: normal; font-variant-position: normal; font-variant-emoji: normal; font-kerning: auto; font-optical-sizing: auto; font-feature-settings: normal; font-variation-settings: normal; font-stretch: normal; line-height: 1.25; font-size-adjust: 0.5; margin-top: 0px; margin-bottom: 0px; overflow: hidden; --color-scrollbar: var(--color-scrollbar-code); --color-type: light-dark(#0053d4, #6db4ff); --color-keyword: light-dark(#388e22, #56a043); --color-class: light-dark(#3e6c20, #83ab69); --color-string: light-dark(#9a1111, #ffadad); --color-template: light-dark(#9a5334, #cd9076); --color-selector: light-dark(#9a5334, #cd9076); --color-function: light-dark(#a753b7, #c37bd1); --color-comment: light-dark(#616161, #9a9a9a); --color-section: light-dark(#9a1111, #ffadad); --color-variable: light-dark(#bd63c5, #b86bbf); --color-attribute: light-dark(#276b8f, #6ba6c5); --color-link: light-dark(#276b8f, #6ba6c5); --color-tag: light-dark(#000000, #ededed);&quot;&gt;Отдел организации учебного процесса с применением ДОТ&lt;/div&gt;" style="rounded=1;whiteSpace=wrap;html=1;align=center;fillColor=#FFFFFF;strokeColor=#000000;fontSize=20;fontFamily=Times New Roman;" parent="1" vertex="1">
          <mxGeometry x="-554" y="1110" width="284" height="150" as="geometry" />
        </mxCell>
        <mxCell id="d8k96oOKlWlVaObeh7ed-18" value="&lt;div class=&quot;code-block&quot; data-entity-type=&quot;MessageEntityPre&quot; data-language=&quot;&quot; style=&quot;box-sizing: border-box; font-variant-numeric: normal; font-variant-east-asian: normal; font-variant-alternates: normal; font-variant-position: normal; font-variant-emoji: normal; font-kerning: auto; font-optical-sizing: auto; font-feature-settings: normal; font-variation-settings: normal; font-stretch: normal; line-height: 1.25; font-size-adjust: 0.5; margin-top: 0px; margin-bottom: 0px; overflow: hidden; --color-scrollbar: var(--color-scrollbar-code); --color-type: light-dark(#0053d4, #6db4ff); --color-keyword: light-dark(#388e22, #56a043); --color-class: light-dark(#3e6c20, #83ab69); --color-string: light-dark(#9a1111, #ffadad); --color-template: light-dark(#9a5334, #cd9076); --color-selector: light-dark(#9a5334, #cd9076); --color-function: light-dark(#a753b7, #c37bd1); --color-comment: light-dark(#616161, #9a9a9a); --color-section: light-dark(#9a1111, #ffadad); --color-variable: light-dark(#bd63c5, #b86bbf); --color-attribute: light-dark(#276b8f, #6ba6c5); --color-link: light-dark(#276b8f, #6ba6c5); --color-tag: light-dark(#000000, #ededed);&quot;&gt;Выявление студентов группы риска по учебному материалу&lt;/div&gt;" style="rounded=1;whiteSpace=wrap;html=1;align=center;fillColor=#FFFFFF;strokeColor=#000000;fontSize=20;fontFamily=Times New Roman;" parent="1" vertex="1">
          <mxGeometry x="-270" y="1620" width="284" height="150" as="geometry" />
        </mxCell>
        <mxCell id="d8k96oOKlWlVaObeh7ed-22" value="&lt;div class=&quot;code-block&quot; data-entity-type=&quot;MessageEntityPre&quot; data-language=&quot;&quot; style=&quot;box-sizing: border-box; font-variant-numeric: normal; font-variant-east-asian: normal; font-variant-alternates: normal; font-variant-position: normal; font-variant-emoji: normal; font-kerning: auto; font-optical-sizing: auto; font-feature-settings: normal; font-variation-settings: normal; font-stretch: normal; line-height: 1.25; font-size-adjust: 0.5; margin-top: 0px; margin-bottom: 0px; overflow: hidden; --color-scrollbar: var(--color-scrollbar-code); --color-type: light-dark(#0053d4, #6db4ff); --color-keyword: light-dark(#388e22, #56a043); --color-class: light-dark(#3e6c20, #83ab69); --color-string: light-dark(#9a1111, #ffadad); --color-template: light-dark(#9a5334, #cd9076); --color-selector: light-dark(#9a5334, #cd9076); --color-function: light-dark(#a753b7, #c37bd1); --color-comment: light-dark(#616161, #9a9a9a); --color-section: light-dark(#9a1111, #ffadad); --color-variable: light-dark(#bd63c5, #b86bbf); --color-attribute: light-dark(#276b8f, #6ba6c5); --color-link: light-dark(#276b8f, #6ba6c5); --color-tag: light-dark(#000000, #ededed);&quot;&gt;&lt;span style=&quot;text-align: start; background-color: rgb(255, 255, 255);&quot;&gt;Организационное обеспечение процессов&lt;/span&gt;&lt;/div&gt;" style="rounded=1;whiteSpace=wrap;html=1;align=center;fillColor=#FFFFFF;strokeColor=#000000;fontSize=20;fontFamily=Times New Roman;" parent="1" vertex="1">
          <mxGeometry x="-920" y="970" width="284" height="150" as="geometry" />
        </mxCell>
        <mxCell id="d8k96oOKlWlVaObeh7ed-24" value="&lt;div class=&quot;code-block&quot; data-entity-type=&quot;MessageEntityPre&quot; data-language=&quot;&quot; style=&quot;box-sizing: border-box; font-variant-numeric: normal; font-variant-east-asian: normal; font-variant-alternates: normal; font-variant-position: normal; font-variant-emoji: normal; font-kerning: auto; font-optical-sizing: auto; font-feature-settings: normal; font-variation-settings: normal; font-stretch: normal; line-height: 1.25; font-size-adjust: 0.5; margin-top: 0px; margin-bottom: 0px; overflow: hidden; --color-scrollbar: var(--color-scrollbar-code); --color-type: light-dark(#0053d4, #6db4ff); --color-keyword: light-dark(#388e22, #56a043); --color-class: light-dark(#3e6c20, #83ab69); --color-string: light-dark(#9a1111, #ffadad); --color-template: light-dark(#9a5334, #cd9076); --color-selector: light-dark(#9a5334, #cd9076); --color-function: light-dark(#a753b7, #c37bd1); --color-comment: light-dark(#616161, #9a9a9a); --color-section: light-dark(#9a1111, #ffadad); --color-variable: light-dark(#bd63c5, #b86bbf); --color-attribute: light-dark(#276b8f, #6ba6c5); --color-link: light-dark(#276b8f, #6ba6c5); --color-tag: light-dark(#000000, #ededed);&quot;&gt;Индивидуальный план ликвидации задолженностей&lt;/div&gt;" style="rounded=1;whiteSpace=wrap;html=1;align=center;fillColor=#FFFFFF;strokeColor=#000000;fontSize=20;fontFamily=Times New Roman;" parent="1" vertex="1">
          <mxGeometry x="-920" y="1290" width="284" height="150" as="geometry" />
        </mxCell>
        <mxCell id="NffoHvDZTpGliqTwmPOM-2" style="edgeStyle=orthogonalEdgeStyle;rounded=0;orthogonalLoop=1;jettySize=auto;html=1;entryX=0.02;entryY=0.443;entryDx=0;entryDy=0;entryPerimeter=0;" edge="1" parent="1" source="5Bsa57qsfdlH7Fz6no1h-16" target="5Bsa57qsfdlH7Fz6no1h-35">
          <mxGeometry relative="1" as="geometry">
            <Array as="points">
              <mxPoint x="120" y="1036" />
            </Array>
          </mxGeometry>
        </mxCell>
      </root>
    </mxGraphModel>
  </diagram>
</mxfile>
